<?xml version="1.0" encoding="utf-8"?>
<!-- Generator: Adobe Illustrator 24.0.2, SVG Export Plug-In . SVG Version: 6.00 Build 0)  -->
<svg version="1.1" id="图层_1" xmlns="http://www.w3.org/2000/svg" xmlns:xlink="http://www.w3.org/1999/xlink" x="0px" y="0px"
	 viewBox="0 0 1125 2436" style="enable-background:new 0 0 1125 2436;" xml:space="preserve">
<style type="text/css">
	.st0{fill:none;stroke:#000000;stroke-width:1.152;stroke-linecap:square;stroke-miterlimit:3.25;}
	.st1{fill:none;stroke:#5E81B5;stroke-width:1.152;stroke-linecap:square;stroke-miterlimit:3.25;stroke-dasharray:2.88,2.88;}
	.st2{fill:none;stroke:#E19C24;stroke-width:1.152;stroke-linecap:square;stroke-miterlimit:3.25;stroke-dasharray:2.88,2.88;}
	.st3{fill:none;stroke:#000000;stroke-width:0.36;stroke-miterlimit:3.25;}
	.st4{fill-rule:evenodd;clip-rule:evenodd;}
	.st5{fill:none;stroke:#000000;stroke-width:0.2866;stroke-linecap:square;stroke-miterlimit:10;}
	.st6{fill:none;stroke:#000000;stroke-width:0.2865;stroke-linecap:square;stroke-miterlimit:10;}
	.st7{fill:none;stroke:#000000;stroke-width:0.36;stroke-linecap:square;stroke-miterlimit:3.25;}
</style>
<g>
	<path class="st0" d="M201.03,1463.78l0.22-0.01l0.21-0.01l0.42-0.01l0.85-0.05l1.68-0.07l3.37-0.15l6.75-0.32l14.64-0.75
		l13.66-0.77l13.39-0.81l14.54-0.99l13.56-1.01l14.7-1.21l14.43-1.34l13.45-1.41l14.6-1.73l13.64-1.85l13.35-2.07l14.49-2.63
		l0.22-0.04l0.2-0.04l0.42-0.09l0.85-0.16l1.69-0.35l3.37-0.7l6.77-1.51l0.46-0.1l0.46-0.11l0.92-0.21l1.83-0.45l3.66-0.91
		l7.33-1.96l0.23-0.06l0.22-0.06l0.46-0.12l0.89-0.26l1.81-0.52l3.59-1.1l7.2-2.37l0.2-0.08l0.22-0.07l0.41-0.14l0.85-0.3l1.67-0.61
		l3.36-1.26l0.21-0.07l0.21-0.09l0.42-0.16l0.83-0.34l1.68-0.67l3.35-1.4l0.91-0.4l0.9-0.4l1.82-0.82l3.65-1.72l0.22-0.11l0.69-0.34
		l0.92-0.46l1.82-0.94l3.64-1.97l0.21-0.11l0.22-0.12l0.42-0.24l0.85-0.49l1.7-1l3.4-2.1l0.21-0.14l0.22-0.14l1.27-0.82l1.7-1.13
		l3.4-2.41l0.23-0.18l0.23-0.16l0.46-0.35l0.93-0.69l1.83-1.43l3.68-3.04l0.46-0.4l0.47-0.4l0.91-0.82l1.84-1.68l3.68-3.59
		l0.22-0.23l0.23-0.24l0.46-0.46l0.9-0.96l1.81-1.96l3.6-4.21l0.23-0.27l0.23-0.29l0.45-0.55l0.9-1.15l1.81-2.35l3.62-5.05
		l0.22-0.31l0.2-0.31l0.42-0.62l0.85-1.28l1.68-2.64l3.37-5.66l0.21-0.36l0.2-0.37l1.27-2.28l1.68-3.17l3.37-6.8l0.92-1.95
		l0.91-2.01l1.83-4.15l3.65-8.96l0.23-0.59l0.23-0.6l0.46-1.19l0.91-2.45l1.83-5.04l3.65-10.82l0.22-0.66l0.2-0.66l0.43-1.34
		l0.85-2.72l1.71-5.59l3.42-11.77l6.82-25.67l6.63-26.63 M545.13,1245.5l6.54-26.3l0.23-0.9l0.46-1.77l0.9-3.52l1.81-6.94
		l3.64-13.32l0.23-0.8l0.22-0.81l0.46-1.58l0.9-3.15l1.82-6.13l3.63-11.54l0.22-0.65l0.2-0.64l0.42-1.27l0.85-2.51l1.69-4.86
		l3.39-9.11l0.44-1.07l0.42-1.07l0.85-2.11l1.7-4.07l3.39-7.6l0.46-0.97l0.46-0.96l0.92-1.9l1.84-3.64l3.66-6.77l0.24-0.4l0.23-0.4
		l0.46-0.79l0.92-1.55l1.83-2.98l3.67-5.55l0.23-0.32l0.23-0.31l0.45-0.64l0.9-1.26l1.8-2.42l3.6-4.51l0.23-0.27l0.23-0.26
		l0.45-0.54l0.9-1.04l1.8-2.02l3.6-3.78l0.22-0.21l0.2-0.21l0.42-0.41l0.83-0.82l1.68-1.58l3.36-3.01l0.21-0.18l0.22-0.19l0.42-0.35
		l0.84-0.71l1.68-1.36l3.36-2.6l0.23-0.16l0.23-0.17l0.45-0.34l0.91-0.65l1.82-1.28l3.65-2.42l0.23-0.15l0.23-0.14l0.46-0.29
		l0.9-0.58l1.83-1.1l3.64-2.1l0.22-0.12l0.22-0.11l0.42-0.24l0.85-0.46l1.7-0.9l3.4-1.72l6.81-3.14l0.22-0.09l0.21-0.09l0.41-0.19
		l2.51-1.05l3.34-1.34l6.67-2.47l0.23-0.07l0.22-0.09l0.46-0.15l0.9-0.31l1.81-0.61l3.63-1.17l7.23-2.17l0.22-0.05l0.21-0.06
		l0.42-0.12l0.85-0.24l1.69-0.46l3.38-0.89l6.75-1.67l0.23-0.06l0.23-0.05l0.46-0.11l0.91-0.21l1.83-0.41l3.66-0.81l7.33-1.51
		l13.67-2.51l13.41-2.12l14.54-1.98l13.58-1.62l14.7-1.55l14.45-1.35l13.47-1.12l14.61-1.1l13.63-0.92l13.36-0.82l14.5-0.81
		l13.53-0.7l0.24-0.01l0.23-0.01l0.48-0.02l0.94-0.04l1.89-0.1l3.77-0.18l0.48-0.03l0.47-0.03l0.95-0.04l1.89-0.09l0.23-0.01
		l0.24-0.01l0.47-0.02l0.95-0.04l0.23-0.01l0.24-0.01l0.47-0.03l0.24-0.01l0.23-0.01h0.24l0.24-0.01"/>
	<line class="st1" x1="189.57" y1="1013.32" x2="900.25" y2="1013.32"/>
	<line class="st2" x1="189.57" y1="1479.46" x2="900.25" y2="1479.46"/>
	<line class="st3" x1="201.03" y1="1262.03" x2="201.03" y2="1246.39"/>
	<path class="st4" d="M195.79,1302.88c0-0.46-0.4-0.46-0.7-0.46h-11.4c-0.3,0-0.69,0-0.69,0.46c0,0.45,0.39,0.45,0.69,0.45h11.4
		C195.39,1303.33,195.79,1303.33,195.79,1302.88L195.79,1302.88z M195.79,1302.88"/>
	<path class="st4" d="M207.06,1304.67c0-1.87-1.31-3.65-3.49-4.13c1.72-0.62,2.93-2.22,2.93-4.02c0-1.87-1.84-3.16-3.86-3.16
		c-2.11,0-3.7,1.37-3.7,3.11c0,0.76,0.46,1.19,1.06,1.19c0.65,0,1.07-0.5,1.07-1.16c0-1.13-1-1.13-1.3-1.13
		c0.65-1.12,2.04-1.42,2.79-1.42c0.86,0,2,0.5,2,2.56c0,0.27-0.04,1.6-0.59,2.61c-0.63,1.1-1.34,1.16-1.86,1.19
		c-0.17,0.03-0.66,0.06-0.81,0.06c-0.17,0.03-0.32,0.05-0.32,0.29s0.15,0.24,0.5,0.24h0.93c1.72,0,2.5,1.56,2.5,3.8
		c0,3.11-1.45,3.78-2.37,3.78c-0.9,0-2.47-0.4-3.2-1.74c0.73,0.11,1.37-0.39,1.37-1.25c0-0.82-0.56-1.28-1.17-1.28
		c-0.5,0-1.18,0.32-1.18,1.32c0,2.08,1.95,3.59,4.23,3.59C205.16,1309.09,207.06,1307.01,207.06,1304.67L207.06,1304.67z
		 M207.06,1304.67"/>
	<path class="st4" d="M219.9,1299.28c0-0.55-0.45-0.55-0.83-0.55h-7.01c-0.47,0-1.26,0-2.18,1.08c-0.73,0.89-1.27,1.94-1.27,2.05
		c0,0,0,0.22,0.24,0.22c0.17,0,0.22-0.09,0.34-0.26c1.02-1.76,2.24-1.76,2.65-1.76h1.19c-0.66,2.76-1.8,5.53-2.68,7.6
		c-0.16,0.35-0.16,0.39-0.16,0.55c0,0.44,0.33,0.63,0.61,0.63c0.63,0,0.79-0.65,1.04-1.49c0.3-1.06,0.3-1.1,0.57-2.25l1.17-5.05
		h2.37c-0.7,3.38-0.88,4.36-0.88,5.89c0,0.34,0,0.96,0.17,1.73c0.21,1.01,0.44,1.15,0.76,1.15c0.41,0,0.86-0.41,0.86-0.88
		c0-0.14,0-0.19-0.13-0.5c-0.61-1.65-0.61-3.13-0.61-3.77c0-1.21,0.15-2.44,0.37-3.63h2.39
		C219.15,1300.07,219.9,1300.07,219.9,1299.28L219.9,1299.28z M219.9,1299.28"/>
	<path class="st3" d="M212.49,1254.2v-7.81 M223.95,1254.2v-7.81 M235.42,1254.2v-7.81 M246.88,1254.2v-7.81 M258.34,1262.03v-15.64
		"/>
	<path class="st4" d="M250.59,1295.51c0-0.46-0.4-0.46-0.7-0.46h-11.42c-0.29,0-0.69,0-0.69,0.46c0,0.45,0.4,0.45,0.69,0.45h11.42
		C250.19,1295.96,250.59,1295.96,250.59,1295.51L250.59,1295.51z M250.59,1295.51"/>
	<path class="st4" d="M264.22,1280.99c0-2.72-1.73-5.01-3.98-5.01c-1,0-1.91,0.38-2.66,1.16v-4.46c0.42,0.14,1.11,0.3,1.79,0.3
		c2.57,0,4.04-2.07,4.04-2.37c0-0.14-0.06-0.25-0.21-0.25c0,0-0.07,0-0.17,0.06c-0.41,0.21-1.44,0.66-2.85,0.66
		c-0.83,0-1.8-0.15-2.78-0.64c-0.17-0.07-0.25-0.07-0.25-0.07c-0.22,0-0.22,0.19-0.22,0.56v6.76c0,0.4,0,0.59,0.3,0.59
		c0.15,0,0.18-0.06,0.28-0.2c0.23-0.38,1.01-1.6,2.7-1.6c1.09,0,1.61,1.05,1.78,1.46c0.33,0.83,0.38,1.73,0.38,2.87
		c0,0.8,0,2.17-0.5,3.13c-0.5,0.9-1.28,1.48-2.24,1.48c-1.53,0-2.72-1.21-3.08-2.56c0.06,0.02,0.13,0.05,0.35,0.05
		c0.69,0,1.04-0.57,1.04-1.12s-0.35-1.12-1.04-1.12c-0.3,0-1.03,0.16-1.03,1.21c0,1.97,1.45,4.18,3.8,4.18
		C262.08,1286.08,264.22,1283.89,264.22,1280.99L264.22,1280.99z M264.22,1280.99"/>
	<path class="st4" d="M277.23,1276.28c0-0.55-0.43-0.55-0.83-0.55h-7.01c-0.47,0-1.26,0-2.19,1.07c-0.73,0.9-1.27,1.95-1.27,2.06
		c0,0,0,0.22,0.25,0.22c0.16,0,0.21-0.09,0.33-0.27c1.03-1.76,2.24-1.76,2.65-1.76h1.2c-0.67,2.77-1.81,5.53-2.69,7.61
		c-0.16,0.34-0.16,0.39-0.16,0.55c0,0.44,0.33,0.61,0.61,0.61c0.63,0,0.79-0.64,1.04-1.48c0.3-1.05,0.3-1.09,0.57-2.24l1.17-5.05
		h2.37c-0.69,3.38-0.88,4.37-0.88,5.9c0,0.34,0,0.96,0.17,1.73c0.21,1,0.45,1.13,0.76,1.13c0.42,0,0.86-0.41,0.86-0.86
		c0-0.14,0-0.19-0.13-0.51c-0.61-1.64-0.61-3.13-0.61-3.77c0-1.21,0.15-2.45,0.38-3.63h2.39
		C276.47,1277.05,277.23,1277.05,277.23,1276.28L277.23,1276.28z M277.23,1276.28"/>
	<line class="st5" x1="254.9" y1="1295.42" x2="278.13" y2="1295.42"/>
	<path class="st4" d="M270.75,1312.89h-0.52c-0.11,0.69-0.25,1.7-0.46,2.04c-0.15,0.19-1.53,0.19-1.99,0.19H264l2.22-2.36
		c3.27-3.14,4.53-4.38,4.53-6.66c0-2.61-1.89-4.44-4.44-4.44c-2.37,0-3.91,2.11-3.91,4.14c0,1.28,1.04,1.28,1.11,1.28
		c0.35,0,1.09-0.29,1.09-1.22c0-0.59-0.38-1.19-1.11-1.19c-0.17,0-0.22,0-0.28,0.03c0.48-1.49,1.61-2.34,2.83-2.34
		c1.91,0,2.8,1.86,2.8,3.73c0,1.82-1.04,3.63-2.2,5.04l-4.01,4.89c-0.23,0.25-0.23,0.3-0.23,0.85h7.77L270.75,1312.89z
		 M270.75,1312.89"/>
	<path class="st3" d="M269.8,1254.2v-7.81 M281.26,1254.2v-7.81 M292.73,1254.2v-7.81 M304.19,1254.2v-7.81 M315.65,1262.03v-15.64"
		/>
	<path class="st4" d="M310.41,1302.88c0-0.46-0.4-0.46-0.69-0.46h-11.42c-0.3,0-0.69,0-0.69,0.46c0,0.45,0.39,0.45,0.69,0.45h11.42
		C310.01,1303.33,310.41,1303.33,310.41,1302.88L310.41,1302.88z M310.41,1302.88"/>
	<path class="st4" d="M321.52,1304.61H321c-0.11,0.69-0.25,1.69-0.46,2.04c-0.15,0.18-1.53,0.18-1.99,0.18h-3.77l2.22-2.35
		c3.27-3.16,4.53-4.39,4.53-6.67c0-2.6-1.89-4.43-4.44-4.43c-2.37,0-3.92,2.11-3.92,4.14c0,1.27,1.05,1.27,1.11,1.27
		c0.37,0,1.09-0.27,1.09-1.21c0-0.6-0.37-1.19-1.11-1.19c-0.16,0-0.2,0-0.26,0.03c0.48-1.49,1.61-2.34,2.83-2.34
		c1.91,0,2.8,1.85,2.8,3.72c0,1.83-1.04,3.63-2.2,5.05l-4.01,4.89c-0.24,0.25-0.24,0.29-0.24,0.84h7.78L321.52,1304.61z
		 M321.52,1304.61"/>
	<path class="st4" d="M334.53,1299.28c0-0.55-0.44-0.55-0.84-0.55h-7.01c-0.46,0-1.26,0-2.18,1.08c-0.73,0.89-1.27,1.94-1.27,2.05
		c0,0,0,0.22,0.25,0.22c0.16,0,0.21-0.09,0.33-0.26c1.03-1.76,2.24-1.76,2.66-1.76h1.2c-0.68,2.76-1.81,5.53-2.68,7.6
		c-0.17,0.35-0.17,0.39-0.17,0.55c0,0.44,0.33,0.63,0.61,0.63c0.63,0,0.8-0.65,1.04-1.49c0.3-1.06,0.3-1.1,0.57-2.25l1.17-5.05h2.37
		c-0.69,3.38-0.88,4.36-0.88,5.89c0,0.34,0,0.96,0.17,1.73c0.2,1.01,0.45,1.15,0.76,1.15c0.42,0,0.86-0.41,0.86-0.88
		c0-0.14,0-0.19-0.13-0.5c-0.61-1.65-0.61-3.13-0.61-3.77c0-1.21,0.15-2.44,0.38-3.63h2.38
		C333.77,1300.07,334.53,1300.07,334.53,1299.28L334.53,1299.28z M334.53,1299.28"/>
	<path class="st3" d="M327.11,1254.2v-7.81 M338.58,1254.2v-7.81 M350.04,1254.2v-7.81 M361.51,1254.2v-7.81 M372.98,1262.03v-15.64
		"/>
	<path class="st4" d="M365.21,1295.51c0-0.46-0.4-0.46-0.69-0.46H353.1c-0.3,0-0.7,0-0.7,0.46c0,0.45,0.4,0.45,0.7,0.45h11.42
		C364.81,1295.96,365.21,1295.96,365.21,1295.51L365.21,1295.51z M365.21,1295.51"/>
	<path class="st4" d="M379,1281.67c0-1.87-1.31-3.66-3.49-4.13c1.72-0.63,2.93-2.22,2.93-4.03c0-1.87-1.84-3.14-3.86-3.14
		c-2.11,0-3.7,1.36-3.7,3.11c0,0.75,0.47,1.19,1.07,1.19c0.64,0,1.06-0.5,1.06-1.16c0-1.15-0.98-1.15-1.3-1.15
		c0.65-1.12,2.04-1.41,2.79-1.41c0.86,0,2.01,0.5,2.01,2.56c0,0.26-0.04,1.6-0.59,2.6c-0.63,1.1-1.34,1.17-1.86,1.19
		c-0.16,0.02-0.66,0.07-0.81,0.07c-0.17,0.03-0.31,0.05-0.31,0.27c0,0.25,0.14,0.25,0.49,0.25h0.93c1.72,0,2.5,1.56,2.5,3.8
		c0,3.11-1.44,3.77-2.37,3.77c-0.9,0-2.47-0.39-3.2-1.73c0.73,0.11,1.39-0.39,1.39-1.26c0-0.82-0.57-1.27-1.18-1.27
		c-0.5,0-1.17,0.31-1.17,1.32c0,2.07,1.94,3.58,4.22,3.58C377.11,1286.08,379,1284.01,379,1281.67L379,1281.67z M379,1281.67"/>
	<path class="st4" d="M391.86,1276.28c0-0.55-0.45-0.55-0.85-0.55H384c-0.46,0-1.26,0-2.18,1.07c-0.73,0.9-1.27,1.95-1.27,2.06
		c0,0,0,0.22,0.25,0.22c0.17,0,0.21-0.09,0.33-0.27c1.03-1.76,2.24-1.76,2.66-1.76h1.19c-0.67,2.77-1.8,5.53-2.68,7.61
		c-0.17,0.34-0.17,0.39-0.17,0.55c0,0.44,0.33,0.61,0.61,0.61c0.63,0,0.8-0.64,1.05-1.48c0.28-1.05,0.28-1.09,0.56-2.24l1.18-5.05
		h2.35c-0.69,3.38-0.87,4.37-0.87,5.9c0,0.34,0,0.96,0.16,1.73c0.22,1,0.45,1.13,0.76,1.13c0.42,0,0.86-0.41,0.86-0.86
		c0-0.14,0-0.19-0.13-0.51c-0.61-1.64-0.61-3.13-0.61-3.77c0-1.21,0.15-2.45,0.38-3.63h2.39
		C391.11,1277.05,391.86,1277.05,391.86,1276.28L391.86,1276.28z M391.86,1276.28"/>
	<line class="st5" x1="369.52" y1="1295.42" x2="392.75" y2="1295.42"/>
	<path class="st4" d="M385.38,1312.89h-0.52c-0.11,0.69-0.26,1.7-0.47,2.04c-0.15,0.19-1.52,0.19-1.99,0.19h-3.76l2.22-2.36
		c3.26-3.14,4.52-4.38,4.52-6.66c0-2.61-1.89-4.44-4.44-4.44c-2.37,0-3.91,2.11-3.91,4.14c0,1.28,1.04,1.28,1.11,1.28
		c0.35,0,1.09-0.29,1.09-1.22c0-0.59-0.38-1.19-1.11-1.19c-0.17,0-0.21,0-0.27,0.03c0.48-1.49,1.61-2.34,2.83-2.34
		c1.91,0,2.81,1.86,2.81,3.73c0,1.82-1.05,3.63-2.21,5.04l-4.02,4.89c-0.23,0.25-0.23,0.3-0.23,0.85h7.77L385.38,1312.89z
		 M385.38,1312.89"/>
	<path class="st3" d="M384.44,1254.2v-7.81 M395.9,1254.2v-7.81 M407.36,1254.2v-7.81 M418.82,1254.2v-7.81 M430.29,1262.03v-15.64"
		/>
	<path class="st4" d="M430.29,1302.88c0-0.46-0.39-0.46-0.69-0.46h-11.42c-0.29,0-0.69,0-0.69,0.46c0,0.45,0.4,0.45,0.69,0.45h11.42
		C429.9,1303.33,430.29,1303.33,430.29,1302.88L430.29,1302.88z M430.29,1302.88"/>
	<path class="st4" d="M443.87,1299.28c0-0.55-0.45-0.55-0.84-0.55h-7.01c-0.47,0-1.26,0-2.18,1.08c-0.73,0.89-1.28,1.94-1.28,2.05
		c0,0,0,0.22,0.25,0.22c0.17,0,0.22-0.09,0.34-0.26c1.02-1.76,2.24-1.76,2.66-1.76h1.19c-0.66,2.76-1.8,5.53-2.68,7.6
		c-0.16,0.35-0.16,0.39-0.16,0.55c0,0.44,0.33,0.63,0.61,0.63c0.63,0,0.79-0.65,1.04-1.49c0.3-1.06,0.3-1.1,0.57-2.25l1.17-5.05
		h2.37c-0.7,3.38-0.88,4.36-0.88,5.89c0,0.34,0,0.96,0.17,1.73c0.2,1.01,0.43,1.15,0.76,1.15c0.41,0,0.86-0.41,0.86-0.88
		c0-0.14,0-0.19-0.13-0.5c-0.61-1.65-0.61-3.13-0.61-3.77c0-1.21,0.15-2.44,0.37-3.63h2.39
		C443.11,1300.07,443.87,1300.07,443.87,1299.28L443.87,1299.28z M443.87,1299.28"/>
	<path class="st3" d="M441.75,1254.2v-7.81 M453.21,1254.2v-7.81 M464.67,1254.2v-7.81 M476.13,1254.2v-7.81 M487.6,1262.03v-15.64"
		/>
	<path class="st4" d="M485.08,1295.51c0-0.46-0.4-0.46-0.69-0.46h-11.42c-0.3,0-0.69,0-0.69,0.46c0,0.46,0.39,0.46,0.69,0.46h11.42
		C484.68,1295.97,485.08,1295.97,485.08,1295.51L485.08,1295.51z M485.08,1295.51"/>
	<path class="st4" d="M501.19,1276.29c0-0.55-0.45-0.55-0.83-0.55h-7.01c-0.47,0-1.26,0-2.18,1.07c-0.73,0.89-1.27,1.94-1.27,2.06
		c0,0,0,0.22,0.24,0.22c0.17,0,0.22-0.09,0.35-0.27c1.02-1.76,2.24-1.76,2.65-1.76h1.19c-0.66,2.76-1.8,5.53-2.68,7.61
		c-0.16,0.34-0.16,0.39-0.16,0.54c0,0.44,0.33,0.62,0.61,0.62c0.63,0,0.79-0.64,1.04-1.48c0.3-1.05,0.3-1.1,0.57-2.24l1.17-5.05
		h2.37c-0.7,3.38-0.88,4.37-0.88,5.89c0,0.35,0,0.96,0.17,1.73c0.2,1.01,0.43,1.15,0.76,1.15c0.41,0,0.86-0.41,0.86-0.87
		c0-0.14,0-0.18-0.13-0.5c-0.61-1.65-0.61-3.13-0.61-3.77c0-1.21,0.15-2.45,0.37-3.63h2.39
		C500.43,1277.07,501.19,1277.07,501.19,1276.29L501.19,1276.29z M501.19,1276.29"/>
	<line class="st6" x1="489.4" y1="1295.42" x2="502.12" y2="1295.42"/>
	<path class="st4" d="M499.99,1312.89h-0.53c-0.1,0.69-0.25,1.7-0.46,2.04c-0.15,0.19-1.53,0.19-1.99,0.19h-3.77l2.22-2.35
		c3.27-3.16,4.53-4.39,4.53-6.68c0-2.61-1.89-4.43-4.45-4.43c-2.37,0-3.91,2.1-3.91,4.13c0,1.28,1.05,1.28,1.11,1.28
		c0.35,0,1.09-0.27,1.09-1.21c0-0.6-0.38-1.2-1.11-1.2c-0.16,0-0.2,0-0.26,0.03c0.48-1.49,1.6-2.32,2.83-2.32
		c1.9,0,2.8,1.85,2.8,3.72c0,1.82-1.05,3.63-2.2,5.04l-4.03,4.89c-0.23,0.25-0.23,0.3-0.23,0.85h7.77L499.99,1312.89z
		 M499.99,1312.89"/>
	<path class="st3" d="M499.06,1254.2v-7.81 M510.52,1254.2v-7.81 M521.98,1254.2v-7.81 M533.44,1254.2v-7.81 M544.91,1262.03v-15.64
		 M556.37,1254.2v-7.81 M567.83,1254.2v-7.81 M579.3,1254.2v-7.81 M590.76,1254.2v-7.81 M602.22,1262.03v-15.64"/>
	<path class="st4" d="M607.74,1276.29c0-0.55-0.43-0.55-0.83-0.55h-7.01c-0.46,0-1.26,0-2.18,1.07c-0.73,0.89-1.27,1.94-1.27,2.06
		c0,0,0,0.22,0.25,0.22c0.16,0,0.21-0.09,0.33-0.27c1.03-1.76,2.24-1.76,2.66-1.76h1.19c-0.68,2.76-1.8,5.53-2.68,7.61
		c-0.17,0.34-0.17,0.39-0.17,0.54c0,0.44,0.33,0.62,0.61,0.62c0.63,0,0.8-0.64,1.05-1.48c0.29-1.05,0.29-1.1,0.56-2.24l1.18-5.05
		h2.36c-0.69,3.38-0.88,4.37-0.88,5.89c0,0.35,0,0.96,0.17,1.73c0.22,1.01,0.45,1.15,0.76,1.15c0.42,0,0.86-0.41,0.86-0.87
		c0-0.14,0-0.18-0.13-0.5c-0.61-1.65-0.61-3.13-0.61-3.77c0-1.21,0.15-2.45,0.37-3.63h2.39
		C606.99,1277.07,607.74,1277.07,607.74,1276.29L607.74,1276.29z M607.74,1276.29"/>
	<line class="st6" x1="595.86" y1="1295.42" x2="608.58" y2="1295.42"/>
	<path class="st4" d="M606.34,1312.89h-0.53c-0.1,0.69-0.25,1.7-0.47,2.04c-0.14,0.19-1.52,0.19-1.98,0.19h-3.77l2.22-2.35
		c3.27-3.16,4.53-4.39,4.53-6.68c0-2.61-1.89-4.43-4.45-4.43c-2.37,0-3.91,2.1-3.91,4.13c0,1.28,1.05,1.28,1.11,1.28
		c0.36,0,1.09-0.27,1.09-1.21c0-0.6-0.38-1.2-1.11-1.2c-0.16,0-0.21,0-0.26,0.03c0.48-1.49,1.6-2.32,2.83-2.32
		c1.9,0,2.8,1.85,2.8,3.72c0,1.82-1.05,3.63-2.2,5.04l-4.03,4.89c-0.23,0.25-0.23,0.3-0.23,0.85h7.77L606.34,1312.89z
		 M606.34,1312.89"/>
	<path class="st3" d="M613.68,1254.2v-7.81 M625.14,1254.2v-7.81 M636.61,1254.2v-7.81 M648.07,1254.2v-7.81 M659.53,1262.03v-15.64
		"/>
	<path class="st4" d="M665.06,1299.28c0-0.55-0.45-0.55-0.85-0.55h-7.01c-0.46,0-1.26,0-2.17,1.08c-0.73,0.89-1.28,1.94-1.28,2.05
		c0,0,0,0.22,0.25,0.22c0.17,0,0.21-0.09,0.33-0.26c1.03-1.76,2.24-1.76,2.66-1.76h1.19c-0.66,2.76-1.8,5.53-2.68,7.6
		c-0.17,0.35-0.17,0.39-0.17,0.55c0,0.44,0.35,0.63,0.61,0.63c0.63,0,0.8-0.65,1.05-1.49c0.29-1.06,0.29-1.1,0.56-2.25l1.18-5.05
		h2.37c-0.7,3.38-0.88,4.36-0.88,5.89c0,0.34,0,0.96,0.16,1.73c0.22,1.01,0.45,1.15,0.76,1.15c0.42,0,0.86-0.41,0.86-0.88
		c0-0.14,0-0.19-0.13-0.5c-0.61-1.65-0.61-3.13-0.61-3.77c0-1.21,0.15-2.44,0.38-3.63h2.39
		C664.3,1300.07,665.06,1300.07,665.06,1299.28L665.06,1299.28z M665.06,1299.28"/>
	<path class="st3" d="M670.99,1254.2v-7.81 M682.45,1254.2v-7.81 M693.92,1254.2v-7.81 M705.38,1254.2v-7.81 M716.84,1262.03v-15.64
		"/>
	<path class="st4" d="M714.82,1281.67c0-1.87-1.31-3.66-3.49-4.13c1.72-0.63,2.93-2.22,2.93-4.03c0-1.87-1.84-3.14-3.86-3.14
		c-2.11,0-3.7,1.36-3.7,3.11c0,0.75,0.46,1.19,1.06,1.19c0.65,0,1.07-0.5,1.07-1.16c0-1.15-0.98-1.15-1.3-1.15
		c0.65-1.12,2.04-1.41,2.79-1.41c0.86,0,2,0.5,2,2.56c0,0.26-0.03,1.6-0.58,2.6c-0.63,1.1-1.34,1.17-1.87,1.19
		c-0.16,0.02-0.66,0.07-0.81,0.07c-0.17,0.03-0.32,0.05-0.32,0.27c0,0.25,0.15,0.25,0.5,0.25h0.93c1.72,0,2.49,1.56,2.49,3.8
		c0,3.11-1.45,3.77-2.37,3.77c-0.9,0-2.47-0.39-3.2-1.73c0.73,0.11,1.39-0.39,1.39-1.26c0-0.82-0.57-1.27-1.18-1.27
		c-0.5,0-1.18,0.31-1.18,1.32c0,2.07,1.96,3.58,4.23,3.58C712.92,1286.08,714.82,1284.01,714.82,1281.67L714.82,1281.67z
		 M714.82,1281.67"/>
	<path class="st4" d="M727.66,1276.28c0-0.55-0.44-0.55-0.83-0.55h-7.01c-0.46,0-1.26,0-2.18,1.07c-0.73,0.9-1.27,1.95-1.27,2.06
		c0,0,0,0.22,0.25,0.22c0.16,0,0.21-0.09,0.33-0.27c1.03-1.76,2.24-1.76,2.65-1.76h1.2c-0.68,2.77-1.81,5.53-2.68,7.61
		c-0.17,0.34-0.17,0.39-0.17,0.55c0,0.44,0.33,0.61,0.61,0.61c0.63,0,0.8-0.64,1.04-1.48c0.3-1.05,0.3-1.09,0.57-2.24l1.17-5.05
		h2.37c-0.69,3.38-0.88,4.37-0.88,5.9c0,0.34,0,0.96,0.17,1.73c0.21,1,0.45,1.13,0.76,1.13c0.42,0,0.86-0.41,0.86-0.86
		c0-0.14,0-0.19-0.13-0.51c-0.61-1.64-0.61-3.13-0.61-3.77c0-1.21,0.15-2.45,0.38-3.63h2.39
		C726.91,1277.05,727.66,1277.05,727.66,1276.28L727.66,1276.28z M727.66,1276.28"/>
	<line class="st5" x1="705.23" y1="1295.42" x2="728.46" y2="1295.42"/>
	<path class="st4" d="M720.98,1312.89h-0.52c-0.1,0.69-0.25,1.7-0.46,2.04c-0.15,0.19-1.53,0.19-1.99,0.19h-3.77l2.22-2.36
		c3.27-3.14,4.53-4.38,4.53-6.66c0-2.61-1.89-4.44-4.44-4.44c-2.38,0-3.92,2.11-3.92,4.14c0,1.28,1.05,1.28,1.11,1.28
		c0.35,0,1.09-0.29,1.09-1.22c0-0.59-0.38-1.19-1.11-1.19c-0.16,0-0.21,0-0.26,0.03c0.48-1.49,1.6-2.34,2.83-2.34
		c1.9,0,2.8,1.86,2.8,3.73c0,1.82-1.05,3.63-2.2,5.04l-4.03,4.89c-0.23,0.25-0.23,0.3-0.23,0.85h7.78L720.98,1312.89z
		 M720.98,1312.89"/>
	<path class="st3" d="M728.3,1254.2v-7.81 M739.77,1254.2v-7.81 M751.23,1254.2v-7.81 M762.69,1254.2v-7.81 M774.15,1262.03v-15.64"
		/>
	<path class="st4" d="M771.96,1304.61h-0.53c-0.1,0.69-0.25,1.69-0.46,2.04c-0.15,0.18-1.53,0.18-1.99,0.18h-3.77l2.22-2.35
		c3.27-3.16,4.53-4.39,4.53-6.67c0-2.6-1.89-4.43-4.44-4.43c-2.37,0-3.91,2.11-3.91,4.14c0,1.27,1.04,1.27,1.11,1.27
		c0.35,0,1.09-0.27,1.09-1.21c0-0.6-0.38-1.19-1.11-1.19c-0.17,0-0.22,0-0.28,0.03c0.48-1.49,1.61-2.34,2.83-2.34
		c1.91,0,2.8,1.85,2.8,3.72c0,1.83-1.04,3.63-2.2,5.05l-4.01,4.89c-0.23,0.25-0.23,0.29-0.23,0.84h7.77L771.96,1304.61z
		 M771.96,1304.61"/>
	<path class="st4" d="M784.96,1299.28c0-0.55-0.43-0.55-0.83-0.55h-7.01c-0.46,0-1.26,0-2.18,1.08c-0.73,0.89-1.27,1.94-1.27,2.05
		c0,0,0,0.22,0.25,0.22c0.17,0,0.21-0.09,0.33-0.26c1.03-1.76,2.24-1.76,2.66-1.76h1.19c-0.67,2.76-1.8,5.53-2.68,7.6
		c-0.17,0.35-0.17,0.39-0.17,0.55c0,0.44,0.33,0.63,0.61,0.63c0.63,0,0.8-0.65,1.05-1.49c0.29-1.06,0.29-1.1,0.56-2.25l1.18-5.05
		h2.36c-0.69,3.38-0.88,4.36-0.88,5.89c0,0.34,0,0.96,0.17,1.73c0.22,1.01,0.45,1.15,0.76,1.15c0.42,0,0.86-0.41,0.86-0.88
		c0-0.14,0-0.19-0.13-0.5c-0.61-1.65-0.61-3.13-0.61-3.77c0-1.21,0.15-2.44,0.38-3.63h2.39
		C784.22,1300.07,784.96,1300.07,784.96,1299.28L784.96,1299.28z M784.96,1299.28"/>
	<path class="st3" d="M785.62,1254.2v-7.81 M797.09,1254.2v-7.81 M808.55,1254.2v-7.81 M820.01,1254.2v-7.81 M831.48,1262.03v-15.64
		"/>
	<path class="st4" d="M829.28,1280.99c0-2.72-1.72-5.01-3.98-5.01c-1.01,0-1.91,0.38-2.67,1.16v-4.46c0.42,0.14,1.12,0.3,1.79,0.3
		c2.57,0,4.05-2.07,4.05-2.37c0-0.14-0.07-0.25-0.22-0.25c0,0-0.06,0-0.16,0.06c-0.42,0.21-1.45,0.66-2.85,0.66
		c-0.85,0-1.81-0.15-2.79-0.64c-0.17-0.07-0.25-0.07-0.25-0.07c-0.21,0-0.21,0.19-0.21,0.56v6.76c0,0.4,0,0.59,0.28,0.59
		c0.15,0,0.2-0.06,0.28-0.2c0.23-0.38,1.01-1.6,2.7-1.6c1.09,0,1.61,1.05,1.78,1.46c0.33,0.83,0.38,1.73,0.38,2.87
		c0,0.8,0,2.17-0.5,3.13c-0.5,0.9-1.28,1.48-2.24,1.48c-1.52,0-2.72-1.21-3.08-2.56c0.06,0.02,0.13,0.05,0.35,0.05
		c0.69,0,1.05-0.57,1.05-1.12s-0.37-1.12-1.05-1.12c-0.3,0-1.03,0.16-1.03,1.21c0,1.97,1.46,4.18,3.8,4.18
		C827.14,1286.08,829.28,1283.89,829.28,1280.99L829.28,1280.99z M829.28,1280.99"/>
	<path class="st4" d="M842.3,1276.28c0-0.55-0.45-0.55-0.85-0.55h-7.01c-0.46,0-1.26,0-2.18,1.07c-0.73,0.9-1.27,1.95-1.27,2.06
		c0,0,0,0.22,0.25,0.22c0.17,0,0.21-0.09,0.33-0.27c1.03-1.76,2.24-1.76,2.66-1.76h1.19c-0.68,2.77-1.8,5.53-2.68,7.61
		c-0.17,0.34-0.17,0.39-0.17,0.55c0,0.44,0.33,0.61,0.61,0.61c0.63,0,0.8-0.64,1.05-1.48c0.29-1.05,0.29-1.09,0.56-2.24l1.18-5.05
		h2.37c-0.7,3.38-0.88,4.37-0.88,5.9c0,0.34,0,0.96,0.16,1.73c0.22,1,0.45,1.13,0.75,1.13c0.42,0,0.86-0.41,0.86-0.86
		c0-0.14,0-0.19-0.13-0.51c-0.61-1.64-0.61-3.13-0.61-3.77c0-1.21,0.15-2.45,0.38-3.63h2.39
		C841.54,1277.05,842.3,1277.05,842.3,1276.28L842.3,1276.28z M842.3,1276.28"/>
	<line class="st5" x1="819.85" y1="1295.42" x2="843.09" y2="1295.42"/>
	<path class="st4" d="M835.6,1312.89h-0.53c-0.1,0.69-0.25,1.7-0.46,2.04c-0.15,0.19-1.53,0.19-1.99,0.19h-3.77l2.22-2.36
		c3.27-3.14,4.53-4.38,4.53-6.66c0-2.61-1.89-4.44-4.44-4.44c-2.37,0-3.92,2.11-3.92,4.14c0,1.28,1.05,1.28,1.11,1.28
		c0.37,0,1.09-0.29,1.09-1.22c0-0.59-0.37-1.19-1.11-1.19c-0.16,0-0.21,0-0.26,0.03c0.48-1.49,1.61-2.34,2.83-2.34
		c1.91,0,2.8,1.86,2.8,3.73c0,1.82-1.04,3.63-2.2,5.04l-4.01,4.89c-0.24,0.25-0.24,0.3-0.24,0.85h7.78L835.6,1312.89z
		 M835.6,1312.89"/>
	<path class="st3" d="M842.94,1254.2v-7.81 M854.4,1254.2v-7.81 M865.86,1254.2v-7.81 M877.32,1254.2v-7.81 M186.71,1246.39H890.1"
		/>
	<path d="M888.79,1242.28l0.21,0.46l0.46,1.12l0.25,0.67l0.21,0.68l0.15,0.63l0.04,0.54l-0.04,0.49l-0.15,0.62l-0.21,0.7l-0.25,0.73
		l-0.46,1.22l-0.21,0.53l14.32-4.28L888.79,1242.28z M888.79,1242.28"/>
	<path class="st7" d="M888.79,1242.28l0.21,0.46l0.46,1.12l0.25,0.67l0.21,0.68l0.15,0.63l0.04,0.54l-0.04,0.49l-0.15,0.62
		l-0.21,0.7l-0.25,0.73l-0.46,1.22l-0.21,0.53l14.32-4.28L888.79,1242.28z M888.79,1242.28"/>
	<path class="st4" d="M934.14,1249.07c0-0.14-0.11-0.25-0.25-0.25c-0.23,0-0.25,0.14-0.33,0.36c-0.67,2.41-2.13,3.53-3.26,3.53
		c-0.88,0-1.35-0.71-1.35-1.83c0-0.6,0.09-1.05,0.49-2.86l0.88-3.72c0.38-1.65,1.24-2.86,2.39-2.86c0,0,0.76,0,1.28,0.36
		c-0.8,0.16-1.11,0.82-1.11,1.34c0,0.66,0.48,0.89,0.83,0.89c0.76,0,1.28-0.71,1.28-1.46c0-1.15-1.21-1.66-2.26-1.66
		c-1.53,0-2.39,1.64-2.61,2.16c-0.58-2.06-2.14-2.16-2.58-2.16c-2.57,0-3.92,3.58-3.92,4.18c0,0.11,0.1,0.25,0.28,0.25
		c0.21,0,0.25-0.16,0.31-0.27c0.85-3.04,2.53-3.62,3.26-3.62c1.13,0,1.36,1.16,1.36,1.81c0,0.61-0.16,1.24-0.46,2.55l-0.86,3.76
		c-0.38,1.65-1.1,3.16-2.44,3.16c-0.13,0-0.76,0-1.28-0.36c0.9-0.19,1.11-1.01,1.11-1.34c0-0.55-0.38-0.88-0.86-0.88
		c-0.59,0-1.24,0.58-1.24,1.45c0,1.15,1.18,1.67,2.25,1.67c1.2,0,2.06-1.05,2.59-2.17c0.4,1.62,1.66,2.17,2.6,2.17
		C932.78,1253.27,934.14,1249.67,934.14,1249.07L934.14,1249.07z M934.14,1249.07"/>
	<line class="st3" x1="530.57" y1="1479.46" x2="544.91" y2="1479.46"/>
	<path class="st4" d="M502.59,1478.64c0-0.46-0.4-0.46-0.7-0.46h-11.41c-0.3,0-0.7,0-0.7,0.46c0,0.46,0.4,0.46,0.7,0.46h11.41
		C502.19,1479.11,502.59,1479.11,502.59,1478.64L502.59,1478.64z M502.59,1478.64"/>
	<path class="st4" d="M518.69,1459.42c0-0.55-0.43-0.55-0.83-0.55h-7.01c-0.46,0-1.26,0-2.18,1.07c-0.73,0.89-1.27,1.93-1.27,2.06
		c0,0,0,0.22,0.25,0.22c0.17,0,0.2-0.1,0.33-0.27c1.03-1.76,2.24-1.76,2.66-1.76h1.19c-0.68,2.76-1.8,5.53-2.68,7.61
		c-0.17,0.34-0.17,0.39-0.17,0.54c0,0.44,0.33,0.63,0.61,0.63c0.63,0,0.8-0.64,1.05-1.49c0.29-1.05,0.29-1.1,0.56-2.23l1.18-5.05
		h2.36c-0.69,3.38-0.88,4.37-0.88,5.89c0,0.35,0,0.96,0.17,1.73c0.22,1.01,0.45,1.15,0.75,1.15c0.42,0,0.86-0.41,0.86-0.88
		c0-0.14,0-0.19-0.13-0.5c-0.61-1.65-0.61-3.13-0.61-3.77c0-1.21,0.15-2.44,0.38-3.63h2.39
		C517.94,1460.2,518.69,1460.2,518.69,1459.42L518.69,1459.42z M518.69,1459.42"/>
	<line class="st6" x1="506.91" y1="1478.56" x2="519.63" y2="1478.56"/>
	<path class="st4" d="M517.49,1496.02h-0.53c-0.1,0.68-0.25,1.7-0.46,2.03c-0.15,0.19-1.53,0.19-1.99,0.19h-3.78l2.22-2.35
		c3.27-3.16,4.53-4.39,4.53-6.68c0-2.61-1.89-4.43-4.44-4.43c-2.37,0-3.91,2.1-3.91,4.13c0,1.28,1.04,1.28,1.11,1.28
		c0.35,0,1.09-0.27,1.09-1.21c0-0.6-0.38-1.2-1.11-1.2c-0.17,0-0.22,0-0.28,0.03c0.48-1.49,1.61-2.32,2.83-2.32
		c1.91,0,2.8,1.85,2.8,3.72c0,1.82-1.04,3.63-2.2,5.04l-4.01,4.89c-0.23,0.25-0.23,0.3-0.23,0.85h7.77L517.49,1496.02z
		 M517.49,1496.02"/>
	<path class="st3" d="M537.75,1456.15h7.16 M537.75,1432.84h7.16 M537.75,1409.54h7.16 M537.75,1386.24h7.16 M530.57,1362.92h14.33"
		/>
	<path class="st4" d="M502.59,1362.11c0-0.46-0.4-0.46-0.7-0.46h-11.41c-0.3,0-0.7,0-0.7,0.46c0,0.46,0.4,0.46,0.7,0.46h11.41
		C502.19,1362.57,502.59,1362.57,502.59,1362.11L502.59,1362.11z M502.59,1362.11"/>
	<path class="st4" d="M518.69,1342.88c0-0.54-0.43-0.54-0.83-0.54h-7.01c-0.46,0-1.26,0-2.18,1.07c-0.73,0.89-1.27,1.93-1.27,2.05
		c0,0,0,0.24,0.25,0.24c0.17,0,0.2-0.1,0.33-0.27c1.03-1.76,2.24-1.76,2.66-1.76h1.19c-0.68,2.76-1.8,5.53-2.68,7.6
		c-0.17,0.35-0.17,0.4-0.17,0.55c0,0.44,0.33,0.62,0.61,0.62c0.63,0,0.8-0.64,1.05-1.49c0.29-1.05,0.29-1.1,0.56-2.25l1.18-5.04
		h2.36c-0.69,3.38-0.88,4.35-0.88,5.89c0,0.35,0,0.96,0.17,1.73c0.22,1.01,0.45,1.15,0.75,1.15c0.42,0,0.86-0.41,0.86-0.87
		c0-0.14,0-0.19-0.13-0.5c-0.61-1.65-0.61-3.13-0.61-3.77c0-1.21,0.15-2.45,0.38-3.63h2.39
		C517.94,1343.66,518.69,1343.66,518.69,1342.88L518.69,1342.88z M518.69,1342.88"/>
	<line class="st6" x1="506.91" y1="1362.02" x2="519.63" y2="1362.02"/>
	<path class="st4" d="M517.94,1379.7v-0.71h-2.09v-10.4c0-0.45,0-0.59-0.33-0.59c-0.19,0-0.25,0-0.42,0.26l-6.43,10.72v0.71h5.57
		v1.98c0,0.82-0.05,1.07-1.59,1.07h-0.44v0.71c0.86-0.07,1.94-0.07,2.83-0.07s1.99,0,2.85,0.07v-0.71h-0.45
		c-1.55,0-1.59-0.25-1.59-1.07v-1.98H517.94z M514.37,1378.99h-5.1l5.1-8.52V1378.99z M514.37,1378.99"/>
	<path class="st3" d="M537.75,1339.62h7.16 M537.75,1316.31h7.16 M537.75,1293.01h7.16 M537.75,1269.7h7.16 M530.57,1246.39h14.33
		 M537.75,1223.09h7.16 M537.75,1199.77h7.16 M537.75,1176.47h7.16 M537.75,1153.17h7.16 M530.57,1129.85h14.33"/>
	<path class="st4" d="M518.8,1109.81c0-0.54-0.45-0.54-0.85-0.54h-7.01c-0.46,0-1.26,0-2.17,1.07c-0.73,0.89-1.28,1.93-1.28,2.04
		c0,0,0,0.24,0.25,0.24c0.17,0,0.22-0.1,0.33-0.27c1.03-1.76,2.24-1.76,2.66-1.76h1.19c-0.66,2.76-1.8,5.53-2.68,7.6
		c-0.17,0.35-0.17,0.39-0.17,0.55c0,0.44,0.34,0.63,0.61,0.63c0.63,0,0.8-0.65,1.05-1.49c0.29-1.06,0.29-1.1,0.56-2.25l1.18-5.04
		h2.37c-0.7,3.38-0.88,4.35-0.88,5.89c0,0.34,0,0.96,0.16,1.73c0.22,1.01,0.45,1.15,0.76,1.15c0.42,0,0.86-0.41,0.86-0.88
		c0-0.14,0-0.19-0.13-0.5c-0.61-1.65-0.61-3.13-0.61-3.77c0-1.21,0.15-2.44,0.37-3.63h2.39
		C518.05,1110.6,518.8,1110.6,518.8,1109.81L518.8,1109.81z M518.8,1109.81"/>
	<line class="st6" x1="506.91" y1="1128.96" x2="519.64" y2="1128.96"/>
	<path class="st4" d="M517.84,1146.63v-0.71h-2.09v-10.4c0-0.46,0-0.6-0.33-0.6c-0.19,0-0.25,0-0.42,0.27l-6.43,10.72v0.71h5.57
		v1.98c0,0.82-0.05,1.07-1.59,1.07h-0.45v0.71c0.86-0.08,1.96-0.08,2.84-0.08c0.88,0,1.99,0,2.84,0.08v-0.71h-0.44
		c-1.54,0-1.59-0.25-1.59-1.07v-1.98H517.84z M514.26,1145.92h-5.11l5.11-8.52V1145.92z M514.26,1145.92"/>
	<path class="st3" d="M537.75,1106.55h7.16 M537.75,1083.24h7.16 M537.75,1059.94h7.16 M544.91,1487.93v-468.89"/>
	<path d="M541.13,1020.49l0.44-0.23l1.03-0.51l0.62-0.26l0.62-0.22l0.58-0.16l0.49-0.06l0.45,0.06l0.57,0.16l0.64,0.22l0.66,0.26
		l1.12,0.51l0.48,0.23l-3.92-15.64L541.13,1020.49z M541.13,1020.49"/>
	<path class="st7" d="M541.13,1020.49l0.44-0.23l1.03-0.51l0.62-0.26l0.62-0.22l0.58-0.16l0.49-0.06l0.45,0.06l0.57,0.16l0.64,0.22
		l0.66,0.26l1.12,0.51l0.48,0.23l-3.92-15.64L541.13,1020.49z M541.13,1020.49"/>
	<path class="st4" d="M490.34,968.19c0.02-0.14,0.07-0.3,0.07-0.46c0-0.41-0.3-0.69-0.67-0.69c-0.23,0-0.76,0.11-0.96,0.92
		l-1.85,8.06c-0.13,0.5-0.13,0.55-0.33,0.86c-0.5,0.76-1.33,1.7-2.54,1.7c-1.41,0-1.53-1.51-1.53-2.25c0-1.57,0.69-3.68,1.36-5.65
		c0.27-0.8,0.42-1.19,0.42-1.72c0-1.16-0.76-2.2-1.98-2.2c-2.31,0-3.25,3.97-3.25,4.2c0,0.11,0.1,0.25,0.29,0.25
		c0.22,0,0.24-0.11,0.34-0.5c0.61-2.29,1.57-3.39,2.54-3.39c0.23,0,0.65,0,0.65,0.9c0,0.71-0.28,1.51-0.65,2.55
		c-1.24,3.59-1.24,4.51-1.24,5.17c0,2.6,1.72,3.21,2.98,3.21c0.73,0,1.63-0.25,2.52-1.26l0.02,0.02c-0.38,1.61-0.63,2.68-1.51,4.03
		c-0.69,1.04-1.66,1.97-2.89,1.97c-0.3,0-1.51-0.06-1.89-1.31c0.08,0.03,0.25,0.03,0.25,0.03c0.76,0,1.26-0.71,1.26-1.35
		c0-0.62-0.47-0.85-0.86-0.85c-0.4,0-1.28,0.32-1.28,1.67c0,1.4,1.09,2.36,2.52,2.36c2.52,0,5.06-2.52,5.75-5.57L490.34,968.19z
		 M490.34,968.19"/>
	<path class="st4" d="M516.2,969.48c0-0.51-0.42-0.51-0.8-0.51h-14.8c-0.35,0-0.8,0-0.8,0.49c0,0.52,0.42,0.52,0.8,0.52h14.8
		C515.75,969.97,516.2,969.97,516.2,969.48L516.2,969.48z M516.2,974.58c0-0.52-0.42-0.52-0.8-0.52h-14.8c-0.35,0-0.8,0-0.8,0.5
		c0,0.51,0.42,0.51,0.8,0.51h14.8C515.75,975.07,516.2,975.07,516.2,974.58L516.2,974.58z M516.2,974.58"/>
	<path class="st4" d="M536.49,976.42v-1.54h-0.56v1.54c0,1.56-0.59,1.78-0.95,1.78c-0.95,0-0.95-1.45-0.95-1.86v-4.81
		c0-1.49,0-2.57-1.11-3.64c-0.88-0.88-2.01-1.26-3.12-1.26c-2.06,0-3.64,1.47-3.64,3.26c0,0.8,0.48,1.19,1.05,1.19
		c0.61,0,1.03-0.46,1.03-1.12c0-1.12-0.9-1.12-1.28-1.12c0.58-1.16,1.78-1.65,2.79-1.65c1.15,0,2.64,1.04,2.64,3.51v1.1
		c-5.06,0.09-6.97,2.38-6.97,4.5c0,2.17,2.31,2.86,3.85,2.86c1.66,0,2.79-1.1,3.27-2.42c0.1,1.29,0.88,2.28,1.96,2.28
		C535.02,979,536.49,978.61,536.49,976.42L536.49,976.42z M532.39,974.99c0,2.68-1.84,3.59-2.92,3.59c-1.24,0-2.27-0.98-2.27-2.31
		c0-3.62,4.27-3.95,5.18-4.01V974.99z M532.39,974.99"/>
	<path class="st4" d="M545.67,968.35c0-0.82-0.69-1.58-1.76-1.58c-2.14,0-2.87,2.52-3.01,3.04h-0.03v-3.04l-3.36,0.3v0.8
		c1.7,0,1.91,0.19,1.91,1.53v7.43c0,1.23-0.27,1.23-1.91,1.23v0.8c0.7-0.06,2.08-0.06,2.84-0.06c0.67,0,2.46,0,3.04,0.06v-0.8h-0.5
		c-1.84,0-1.89-0.3-1.89-1.28v-4.31c0-2.66,1-5.15,2.94-5.15c0.21,0,0.25,0,0.36,0.03c-0.21,0.11-0.61,0.27-0.61,1.01
		c0,0.8,0.59,1.1,0.98,1.1C545.17,969.45,545.67,969.1,545.67,968.35L545.67,968.35z M545.67,968.35"/>
	<path class="st4" d="M556.7,975.59c0-0.25-0.17-0.25-0.25-0.25c-0.23,0-0.25,0.09-0.32,0.41c-0.56,1.96-1.91,2.77-3.27,2.77
		c-1.53,0-3.57-1.45-3.57-5.62c0-4.56,2.14-5.68,3.4-5.68c0.95,0,2.33,0.41,2.91,1.48c-0.3,0-1.22,0-1.22,1.12
		c0,0.66,0.42,1.12,1.03,1.12c0.57,0,1.05-0.39,1.05-1.18c0-1.85-1.76-3.16-3.8-3.16c-2.94,0-5.27,2.85-5.27,6.3
		c0,3.51,2.41,6.2,5.25,6.2C555.95,979.14,556.7,975.84,556.7,975.59L556.7,975.59z M556.7,975.59"/>
	<path class="st4" d="M565.66,975.45v-1.56h-0.56v1.51c0,1.97-0.72,3.12-1.7,3.12c-1.7,0-1.7-2.55-1.7-3.01v-7.67h3.53v-0.8h-3.53
		V962h-0.56c-0.02,2.57-0.93,5.2-3.22,5.29v0.55h2.14v7.61c0,3.04,1.85,3.68,3.19,3.68C564.82,979.14,565.66,977.43,565.66,975.45
		L565.66,975.45z M565.66,975.45"/>
	<path class="st4" d="M578.86,976.42v-1.54h-0.55v1.54c0,1.56-0.61,1.78-0.96,1.78c-0.95,0-0.95-1.45-0.95-1.86v-4.81
		c0-1.49,0-2.57-1.11-3.64c-0.88-0.88-2-1.26-3.11-1.26c-2.06,0-3.65,1.47-3.65,3.26c0,0.8,0.48,1.19,1.06,1.19
		c0.59,0,1.03-0.46,1.03-1.12c0-1.12-0.92-1.12-1.28-1.12c0.57-1.16,1.77-1.65,2.79-1.65c1.16,0,2.63,1.04,2.63,3.51v1.1
		c-5.06,0.09-6.97,2.38-6.97,4.5c0,2.17,2.32,2.86,3.85,2.86c1.66,0,2.78-1.1,3.26-2.42c0.1,1.29,0.88,2.28,1.96,2.28
		C577.41,979,578.86,978.61,578.86,976.42L578.86,976.42z M574.77,974.99c0,2.68-1.83,3.59-2.92,3.59c-1.22,0-2.25-0.98-2.25-2.31
		c0-3.62,4.27-3.95,5.17-4.01V974.99z M574.77,974.99"/>
	<path class="st4" d="M592.49,978.86v-0.8c-1.26,0-1.89,0-1.91-0.82v-5.04c0-2.55,0-3.32-0.58-4.19c-0.72-1.07-1.9-1.24-2.76-1.24
		c-2.44,0-3.4,2.27-3.61,2.82h-0.02v-2.82l-3.41,0.3v0.8c1.7,0,1.91,0.19,1.91,1.53v7.43c0,1.23-0.29,1.23-1.91,1.23v0.8
		c0.65-0.06,2-0.06,2.71-0.06c0.72,0,2.08,0,2.74,0.06v-0.8c-1.6,0-1.91,0-1.91-1.23v-5.11c0-2.87,1.74-4.41,3.29-4.41
		c1.56,0,1.91,1.4,1.91,3.07v6.44c0,1.23-0.28,1.23-1.91,1.23v0.8c0.65-0.06,2.01-0.06,2.71-0.06
		C590.47,978.8,591.83,978.8,592.49,978.86L592.49,978.86z M592.49,978.86"/>
	<path class="st4" d="M609.37,974.94c0-0.14-0.1-0.25-0.24-0.25c-0.23,0-0.26,0.14-0.33,0.35c-0.68,2.42-2.14,3.54-3.27,3.54
		c-0.88,0-1.35-0.71-1.35-1.83c0-0.61,0.09-1.05,0.49-2.86l0.88-3.73c0.38-1.64,1.24-2.85,2.39-2.85c0,0,0.76,0,1.28,0.35
		c-0.8,0.18-1.1,0.82-1.1,1.35c0,0.66,0.47,0.88,0.83,0.88c0.75,0,1.28-0.71,1.28-1.45c0-1.15-1.2-1.67-2.26-1.67
		c-1.53,0-2.38,1.65-2.61,2.16c-0.58-2.05-2.14-2.16-2.59-2.16c-2.57,0-3.92,3.59-3.92,4.2c0,0.11,0.11,0.25,0.28,0.25
		c0.2,0,0.25-0.16,0.3-0.27c0.86-3.04,2.54-3.62,3.27-3.62c1.13,0,1.36,1.15,1.36,1.81c0,0.6-0.15,1.24-0.46,2.55l-0.86,3.76
		c-0.38,1.65-1.1,3.16-2.44,3.16c-0.13,0-0.76,0-1.28-0.36c0.9-0.19,1.11-1.01,1.11-1.34c0-0.55-0.38-0.89-0.86-0.89
		c-0.59,0-1.26,0.57-1.26,1.46c0,1.15,1.19,1.67,2.27,1.67c1.2,0,2.06-1.05,2.59-2.17c0.41,1.62,1.67,2.17,2.59,2.17
		C608.02,979.14,609.37,975.54,609.37,974.94L609.37,974.94z M609.37,974.94"/>
</g>
</svg>
