<svg id="图层_1" data-name="图层 1" xmlns="http://www.w3.org/2000/svg" xmlns:xlink="http://www.w3.org/1999/xlink" viewBox="0 0 656.34 596.1"><defs><style>.cls-1,.cls-10,.cls-2,.cls-3,.cls-5,.cls-7{fill:none;}.cls-10,.cls-2,.cls-3,.cls-5,.cls-7{stroke:#000;}.cls-2,.cls-5,.cls-7{stroke-linecap:square;}.cls-10,.cls-2,.cls-3,.cls-7{stroke-miterlimit:3.25;}.cls-2{stroke-width:1.15px;}.cls-3,.cls-7{stroke-width:0.36px;}.cls-4{fill-rule:evenodd;}.cls-5{stroke-miterlimit:10;stroke-width:0.29px;}.cls-6{clip-path:url(#clip-path);}.cls-8{clip-path:url(#clip-path-2);}.cls-11,.cls-9{font-size:21px;fill:#231815;font-family:TimesNewRomanPS-ItalicMT, Times New Roman;font-style:italic;}.cls-11{letter-spacing:-0.02em;}</style><clipPath id="clip-path" transform="translate(-322.14 -1000.42)"><rect class="cls-1" x="321.69" y="1000" width="659.07" height="598"/></clipPath><clipPath id="clip-path-2" transform="translate(-322.14 -1000.42)"><rect class="cls-1" x="634.68" y="1045.8" width="2.54" height="551.69"/></clipPath></defs><title>3</title><path class="cls-2" d="M872.19,1313.63v-2.72l0-.92v-.44l0-.92v-.9l0-.46,0-.9,0-.46v-.45l0-.91,0-.45,0-.46,0-.9,0-.46,0-.46,0-.9-.11-1.81-.06-.91-.06-.91-.12-1.81,0-.45,0-.45-.07-.91-.16-1.81-.05-.45,0-.45-.09-.91-.19-1.81-.42-3.6-.06-.5-.06-.49-.13-1-.26-2-.59-3.9-.07-.48-.24-1.47-.34-1.93-.7-3.88-.1-.49-.09-.48-.2-1-.4-1.93-.83-3.84-1.88-7.66-.12-.45-.12-.43-.24-.9-.49-1.77-1-3.53-2.21-7-.14-.44-.15-.44-.29-.86-.6-1.74-1.23-3.47-2.64-6.87-.67-1.67-.7-1.67-1.42-3.31-3-6.56-.19-.41-.2-.4-.39-.82-.79-1.62-1.62-3.22-3.39-6.37-1-1.71-1-1.7-2-3.37-4.11-6.66-.26-.41-.27-.41-.54-.82L832.7,1183l-2.2-3.24-4.54-6.37-.28-.36-.27-.37-.54-.74-1.11-1.45-2.24-2.88-4.61-5.66-.59-.7-.59-.7-1.19-1.38-2.42-2.74-5-5.36-.34-.36-.34-.36-.69-.71-1.38-1.41-2.8-2.81-5.74-5.44-.37-.33-.35-.34-.74-.67-1.47-1.32-3-2.59-6.09-5-.38-.31-.38-.3-.76-.6-1.53-1.2-3.09-2.35-6.29-4.55-.4-.28-.41-.28-.79-.55-1.61-1.09L765,1116l-6.59-4.12-.39-.24-.39-.23-.77-.47-1.57-.92-3.14-1.8-6.37-3.46-.4-.21-.4-.21-.81-.41-1.61-.82-3.25-1.61-6.57-3.06-1.79-.8-1.81-.77-3.63-1.52-7.31-2.85-.47-.17-.46-.16-.92-.34-1.85-.66-3.72-1.27-7.5-2.36-.88-.25-.88-.25-1.76-.51-3.55-1-.44-.11-.44-.12-.89-.23-1.78-.45-3.57-.85-1.79-.39-1.79-.39-3.59-.73-.46-.1-.45-.09-.89-.16-1.81-.34-3.62-.62-.44-.08-.44-.07-.89-.13-1.78-.27-.45-.07-.44-.06-.89-.13-1.78-.25-.89-.12-.9-.11-1.78-.22-3.57-.39-.45,0-.45,0-.89-.1-2.69-.23-.89-.07-1.8-.14-2.68-.18-.91,0-.45,0-.44,0-.9,0-.45,0-.45,0-.9,0-.48,0h-.49l-1,0h-.48l-.49,0-1,0-.49,0-1,0h-.49l-1,0h-4.87l-1,0h-1l-2.43,0-.49,0H629l-1,0h-.49l-1.46.06-.48,0-1,0-1.95.11-2,.12-1.94.14-1,.08-1,.08-2,.17-.45,0-.45,0-.91.09-1.81.19-.46,0-.44,0-.91.1-1.81.22-.45.06-.45,0-.91.12-1.79.25-3.61.52-.9.14-.9.14-1.79.3-3.59.65-7.14,1.44-.47.11-.49.1-1,.22-1.91.44-3.84.94-.48.13-.48.12-1,.24-1.9.51-3.81,1.07-.46.13-.48.14-.94.29-1.89.57-3.77,1.19-7.45,2.57-.92.34-.9.34-1.81.69-3.61,1.41-7.15,3-.44.2-.44.2-.89.38-1.76.81-3.5,1.65-6.93,3.47-.8.42-.8.42-1.59.85-3.17,1.75-6.25,3.63-.39.23-.37.24-.78.46-1.54,1-3.05,1.93-6,4-.39.28-.41.28-.8.57-1.59,1.13-3.18,2.29-6.23,4.76-.38.31-.39.31-.76.61-1.52,1.24-3,2.5-5.9,5.16-1.35,1.24-1.33,1.25-2.66,2.51-5.18,5.16-1.28,1.32-1.26,1.32-2.49,2.68-4.86,5.47-.32.38-.32.37-.65.76-1.27,1.51-2.5,3.07-4.86,6.26-.6.8-.59.79-1.17,1.6-2.3,3.23-4.42,6.57-.27.41-.26.41-.52.83-1.05,1.63-2,3.33-3.91,6.72-.24.42-.24.43-1.4,2.56-1.81,3.44-3.46,7-.2.42-.19.41-.38.82-.76,1.64-1.49,3.32-2.81,6.69-.17.42-.17.43-1,2.53-1.28,3.4-2.39,6.85-.15.47-.16.46-.3.94-.59,1.88-1.16,3.76-.14.47-.14.48-.8,2.83-1,3.81-.23.95-.25,1-.47,1.91-.89,3.82-1.59,7.72-.09.44-.09.46-.16.91-.32,1.8-.6,3.62-.08.46-.07.46-.13.9-.26,1.82-.49,3.64-.06.46-.05.45-.11.92-.21,1.83-.05.45-.05.45-.1.91-.18,1.83-.16,1.83-.14,1.84-.05.46,0,.46-.06.91-.15,2.29,0,.45-.05.89,0,.46,0,.45,0,.89,0,.46-.06,1.34,0,.46,0,.44,0,.9v.9l0,.45v.46l0,1.34v.46l0,.89v6.76l0,.9v.45l0,.9,0,.9,0,.45v.45l0,.9,0,.45,0,.46.06,1.34,0,.45,0,.9.1,1.8,0,.48,0,.49.05,1,.14,1.94.17,2,.16,2,.1,1,.09,1,.21,1.94.46,3.88.07.48.06.49.13,1,.26,1.93.59,3.87.08.48.08.48.16,1,.34,1.93.71,3.84.08.45.27,1.34.37,1.79.78,3.56.2.89.21.89.43,1.77.88,3.54.12.44.12.44.23.88.48,1.76,1,3.51,2.16,7,.16.48.15.47,1,2.8,1.32,3.72,2.84,7.39.19.46.17.46.38.91.77,1.82,1.57,3.63,3.32,7.17.42.88.42.86.88,1.74,1.77,3.45,3.71,6.81.24.43.25.42.48.84,1,1.67,2,3.33,4.16,6.55.49.76.51.75,1,1.5,2.07,3,4.25,5.86.28.36.26.36.55.72,1.1,1.43,2.24,2.86,4.6,5.58.32.37.33.38.63.73,1.3,1.49,2.61,2.93,5.38,5.71.35.35.33.35.69.7,1.39,1.4,2.8,2.74,5.75,5.35.34.3.35.3.68.62,1.37,1.2,2.79,2.39,5.66,4.64.72.58.72.55,1.46,1.13,2.92,2.21,5.94,4.28.74.51.74.51,1.48,1,3,2,6.08,3.84.38.23.38.24.77.45,1.54.93,3.11,1.8,6.3,3.45.43.23.44.22,2.59,1.35,3.49,1.73,7.07,3.3.44.19,1.34.6,1.79.77,3.6,1.51,7.26,2.82.42.16.43.15.85.31,1.72.61,3.44,1.19,6.93,2.2.87.26.87.26,1.75.51,3.51,1,7,1.77.49.12,1.43.33,1.93.42,3.86.81.49.1.48.09,1,.19,1.94.36,3.88.67.49.08.48.08,1,.16,2,.3.49.07.49.07,1,.14,1.95.27.48.05.5.06,1,.13,2,.23,3.92.42.45,0,.46,0,.93.08,2.28.2.46,0,.92.07,1.83.13.47,0,1.37.08.46,0,.47,0,.91,0,.46,0,.47,0,1.37.07h.47l.91,0,.46,0h.46l.46,0h.92l1.38,0h8.74l.92,0h.47l.91,0h.91l.9,0h.45l.44,0,.91,0,.45,0,.45,0,.9,0,1.81-.11.89,0,.91-.05,1.79-.13.45,0,.46,0,.89-.07,1.8-.16.9-.08.9-.08,1.79-.19.45,0,.46,0,.89-.1,1.79-.21.45-.06.44,0,.9-.12,1.79-.22,3.58-.52.48-.07.48-.08,1-.15,1.92-.32,3.86-.68.49-.09.47-.09,1-.19,1.92-.38,3.82-.81.48-.1L691,1543l3.8-.94,7.55-2.06.88-.26.88-.26,1.74-.53,3.49-1.1,6.91-2.36.44-.16.43-.16.85-.31,1.71-.65,3.41-1.31,6.76-2.79.45-.19.45-.2.91-.4,1.81-.8,3.6-1.66,7.09-3.5.45-.23,1.31-.68,1.75-.93,3.48-1.9,6.85-4,.42-.25.41-.26.83-.5,1.66-1,3.28-2.09,6.45-4.33,1.59-1.12,1.58-1.13,3.14-2.3,6.16-4.75.35-.28.35-.28.71-.57,1.4-1.14,2.78-2.33,5.46-4.78.34-.31.32-.3.68-.61,1.33-1.24,2.64-2.49,5.15-5.1.33-.36.35-.35.68-.7,1.36-1.42,2.67-2.89,5.21-5.88.64-.76.63-.74,1.27-1.51,2.47-3,4.81-6.23.27-.36.28-.37.55-.75,1.07-1.48,2.13-3,4.11-6.08.25-.39.25-.38.5-.77,1-1.56,1.94-3.12,3.72-6.32.23-.4.21-.38,1.32-2.36,1.69-3.17,3.26-6.42.2-.4.2-.41.39-.8.78-1.63,1.51-3.27,2.86-6.6.19-.45.18-.46.36-.89.74-1.82,1.4-3.64,2.65-7.35.15-.46.15-.46.31-.94.61-1.84,1.16-3.73,2.15-7.5.12-.45.11-.44.24-.88.44-1.76.87-3.54.2-.9.21-.88.39-1.78.75-3.56.36-1.79.34-1.79.64-3.59.07-.45.08-.44.15-.91.28-1.8.53-3.59.07-.51.06-.51.14-1,.25-2,.07-.51.06-.5.11-1,.22-2,.05-.49.06-.51.09-1,.19-2,0-.51,0-.5.09-1,.14-2,0-.5.05-.51.11-2,0-1,0-.51,0-.5.05-1,0-.52.08-2v-.51l0-.51,0-1,0-.52,0-1v-.51l0-1v-2.55m-69,0V1147m69,166.68V1077.9M636.46,1313.63l.07-.07.07-.08.15-.14.86-.86,1.16-1.16,2.31-2.31,29-29,4.94-5,4.61-4.61,5-5,4.67-4.67,4.57-4.58,5-5,4.64-4.64,5-5L723,1227.08l4.65-4.66,5.05-5,4.95-5,4.62-4.62,5-5,4.68-4.68,4.59-4.58,5-5,4.65-4.65,14.58-14.58,5-5,4.67-4.66,19.19-19.19,4.68-4.69,4.6-4.59,9.63-9.63,5-5,4.95-5,4.63-4.61,5-5,9.25-9.26,5-5,4.63-4.64.16-.16.17-.16.32-.33.65-.64,1.3-1.29.16-.16.15-.17.33-.32.81-.8.16-.18.32-.31.08-.08.09-.09.16-.16.32-.32" transform="translate(-322.14 -1000.42)"/><line class="cls-3" x1="78.58" y1="325.79" x2="78.58" y2="313.21"/><path class="cls-4" d="M401.7,1358.74c0-.37-.34-.37-.6-.37h-9.92c-.25,0-.6,0-.6.37s.35.37.6.37h9.92c.26,0,.6,0,.6-.37Zm0,0" transform="translate(-322.14 -1000.42)"/><path class="cls-4" d="M410.8,1363.29v-.56h-.58c-1.64,0-1.7-.2-1.7-.88v-10.21c0-.43,0-.47-.41-.47a4.49,4.49,0,0,1-3.32,1.17v.56a5.48,5.48,0,0,0,2.39-.47v9.42c0,.66-.05.88-1.69.88h-.59v.56c.64-.06,2.23-.06,3-.06s2.3,0,2.94.06Zm0,0" transform="translate(-322.14 -1000.42)"/><path class="cls-3" d="M424.3,1319.91v-6.28m23.57,6.28v-6.28m23.57,6.28v-6.28m23.57,6.28v-6.28m23.58,12.58v-12.58" transform="translate(-322.14 -1000.42)"/><path class="cls-4" d="M517.38,1352.88c0-.37-.35-.37-.6-.37h-9.92c-.26,0-.61,0-.61.37s.35.36.61.36h9.92c.25,0,.6,0,.6-.36Zm0,0" transform="translate(-322.14 -1000.42)"/><path class="cls-4" d="M528.68,1345v-.55h-.59c-1.63,0-1.69-.21-1.69-.88v-10.22c0-.43,0-.46-.42-.46a4.5,4.5,0,0,1-3.31,1.16v.56a5.52,5.52,0,0,0,2.39-.47v9.43c0,.66-.06.88-1.7.88h-.58v.55c.64,0,2.22,0,3,0s2.31,0,2.95,0Zm0,0" transform="translate(-322.14 -1000.42)"/><line class="cls-5" x1="198.98" y1="352.39" x2="208.11" y2="352.39"/><path class="cls-4" d="M529.23,1366.71h-.46a5.87,5.87,0,0,1-.4,1.62,5.78,5.78,0,0,1-1.73.15h-3.28l1.93-1.87c2.84-2.51,3.94-3.5,3.94-5.32a3.57,3.57,0,0,0-3.86-3.52,3.36,3.36,0,0,0-3.41,3.29.94.94,0,0,0,1,1,1,1,0,0,0,1-1,.93.93,0,0,0-1-1,.66.66,0,0,0-.23,0,2.64,2.64,0,0,1,2.46-1.86c1.66,0,2.43,1.49,2.43,3a6.47,6.47,0,0,1-1.9,4l-3.49,3.9c-.21.2-.21.24-.21.67h6.76Zm0,0" transform="translate(-322.14 -1000.42)"/><path class="cls-3" d="M542.16,1319.91v-6.28m23.58,6.28v-6.28m23.57,6.28v-6.28m23.57,6.28v-6.28m23.58,12.58v-12.58m23.57,6.28v-6.28m23.58,6.28v-6.28m23.56,6.28v-6.28m23.58,6.28v-6.28m23.57,12.58v-12.58" transform="translate(-322.14 -1000.42)"/><path class="cls-4" d="M757.41,1345v-.55h-.58c-1.65,0-1.69-.21-1.69-.88v-10.22c0-.43,0-.46-.42-.46a4.52,4.52,0,0,1-3.32,1.16v.56a5.44,5.44,0,0,0,2.38-.47v9.43c0,.66,0,.88-1.69.88h-.58v.55c.63,0,2.22,0,3,0s2.31,0,2.95,0Zm0,0" transform="translate(-322.14 -1000.42)"/><line class="cls-5" x1="427.63" y1="352.39" x2="436.75" y2="352.39"/><path class="cls-4" d="M758,1366.71h-.46a5.5,5.5,0,0,1-.41,1.62,5.71,5.71,0,0,1-1.73.15h-3.27l1.93-1.87c2.85-2.51,3.94-3.5,3.94-5.32a3.58,3.58,0,0,0-3.87-3.52,3.35,3.35,0,0,0-3.4,3.29,1,1,0,1,0,1.91.06.93.93,0,0,0-1-1,.69.69,0,0,0-.24,0,2.63,2.63,0,0,1,2.45-1.86c1.66,0,2.45,1.49,2.45,3a6.45,6.45,0,0,1-1.92,4l-3.49,3.9c-.2.2-.2.24-.2.67h6.75Zm0,0" transform="translate(-322.14 -1000.42)"/><path class="cls-3" d="M777.9,1319.91v-6.28m23.57,6.28v-6.28m23.58,6.28v-6.28m23.57,6.28v-6.28m23.57,12.58v-12.58" transform="translate(-322.14 -1000.42)"/><g class="cls-6"><path class="cls-4" d="M875.26,1363.29v-.56h-.58c-1.63,0-1.69-.2-1.69-.88v-10.21c0-.43,0-.47-.42-.47a4.47,4.47,0,0,1-3.31,1.17v.56a5.44,5.44,0,0,0,2.38-.47v9.42c0,.66,0,.88-1.69.88h-.58v.56c.64-.06,2.23-.06,3-.06s2.31,0,2.94.06Zm0,0" transform="translate(-322.14 -1000.42)"/><line class="cls-3" y1="313.21" x2="611.51" y2="313.21"/></g><path d="M931.91,1308.67l.28.57.61,1.35.31.82.28.81.19.77.07.64-.07.59-.19.75-.28.85-.31.86-.61,1.48-.28.63,18.86-5.16Zm0,0" transform="translate(-322.14 -1000.42)"/><path class="cls-7" d="M931.91,1308.67l.28.57.61,1.35.31.82.28.81.19.77.07.64-.07.59-.19.75-.28.85-.31.86-.61,1.48-.28.63,18.86-5.16Zm0,0" transform="translate(-322.14 -1000.42)"/><path class="cls-4" d="M977.74,1315.77a.21.21,0,0,0-.22-.2c-.2,0-.22.11-.29.29-.59,1.92-1.85,2.81-2.83,2.81-.77,0-1.18-.56-1.18-1.46a9.7,9.7,0,0,1,.43-2.28l.77-3c.32-1.31,1.07-2.27,2.07-2.27a2.5,2.5,0,0,1,1.12.28,1.1,1.1,0,0,0-1,1.07.68.68,0,0,0,.73.7,1.14,1.14,0,0,0,1.11-1.16c0-.92-1.05-1.33-2-1.33a2.76,2.76,0,0,0-2.26,1.73,2.27,2.27,0,0,0-2.25-1.73c-2.24,0-3.41,2.86-3.41,3.34a.23.23,0,0,0,.24.2c.18,0,.22-.13.27-.22.73-2.43,2.19-2.88,2.83-2.88,1,0,1.18.92,1.18,1.44a9.68,9.68,0,0,1-.39,2l-.75,3c-.33,1.31-1,2.51-2.12,2.51a2.16,2.16,0,0,1-1.11-.29,1.11,1.11,0,0,0,1-1.06.7.7,0,0,0-.74-.71,1.14,1.14,0,0,0-1.08,1.17c0,.91,1,1.33,2,1.33a2.72,2.72,0,0,0,2.25-1.73,2.29,2.29,0,0,0,2.26,1.73c2.21,0,3.4-2.86,3.4-3.34Zm0,0" transform="translate(-322.14 -1000.42)"/><line class="cls-3" x1="301.74" y1="548.95" x2="314.32" y2="548.95"/><path class="cls-4" d="M605.89,1549.18c0-.37-.35-.37-.61-.37h-9.91c-.26,0-.61,0-.61.37s.35.35.61.35h9.91c.26,0,.61,0,.61-.35Zm0,0" transform="translate(-322.14 -1000.42)"/><path class="cls-4" d="M615,1553.72v-.57h-.59c-1.64,0-1.69-.2-1.69-.87v-10.21c0-.43,0-.47-.41-.47a4.55,4.55,0,0,1-3.33,1.16v.57a5.38,5.38,0,0,0,2.39-.48v9.43c0,.66-.05.87-1.69.87h-.59v.57c.64,0,2.23,0,3,0s2.3,0,3,0Zm0,0" transform="translate(-322.14 -1000.42)"/><path class="cls-3" d="M630.17,1525.79h6.29m-6.29-23.57h6.29m-6.29-23.57h6.29m-6.29-23.58h6.29m-12.57-23.57h12.57" transform="translate(-322.14 -1000.42)"/><path class="cls-4" d="M601.5,1432.66c0-.36-.35-.36-.59-.36H591c-.25,0-.59,0-.59.36s.34.37.59.37h9.93c.24,0,.59,0,.59-.37Zm0,0" transform="translate(-322.14 -1000.42)"/><path class="cls-4" d="M612.8,1424.75v-.55h-.58c-1.63,0-1.69-.2-1.69-.88v-10.21c0-.43,0-.47-.42-.47a4.51,4.51,0,0,1-3.31,1.16v.57a5.34,5.34,0,0,0,2.38-.48v9.43c0,.66-.06.88-1.69.88h-.58v.55c.63,0,2.21,0,3,0s2.31,0,2.94,0Zm0,0" transform="translate(-322.14 -1000.42)"/><line class="cls-5" x1="283.12" y1="432.18" x2="292.24" y2="432.18"/><path class="cls-4" d="M613.35,1446.51h-.46a6.06,6.06,0,0,1-.4,1.62,6.14,6.14,0,0,1-1.72.14h-3.28l1.92-1.87c2.85-2.51,3.94-3.5,3.94-5.32a3.57,3.57,0,0,0-3.86-3.52,3.35,3.35,0,0,0-3.4,3.29,1,1,0,1,0,1.91.06.93.93,0,0,0-1-1,.63.63,0,0,0-.24,0,2.62,2.62,0,0,1,2.45-1.85c1.66,0,2.44,1.47,2.44,3a6.54,6.54,0,0,1-1.91,4l-3.49,3.89c-.2.2-.2.24-.2.67h6.75Zm0,0" transform="translate(-322.14 -1000.42)"/><path class="cls-3" d="M630.17,1407.92h6.29m-6.29-23.56h6.29m-6.29-23.58h6.29m-6.29-23.57h6.29m-12.57-23.58h12.57m-6.29-23.58h6.29m-6.29-23.56h6.29m-6.29-23.58h6.29m-6.29-23.57h6.29m-12.57-23.58h12.57" transform="translate(-322.14 -1000.42)"/><path class="cls-4" d="M612.89,1189v-.56h-.57c-1.65,0-1.7-.2-1.7-.88v-10.21c0-.44,0-.46-.42-.46a4.49,4.49,0,0,1-3.31,1.16v.56a5.44,5.44,0,0,0,2.38-.47v9.42c0,.66,0,.88-1.68.88H607v.56c.63,0,2.22,0,3,0s2.31,0,2.94,0Zm0,0" transform="translate(-322.14 -1000.42)"/><line class="cls-5" x1="283.12" y1="196.45" x2="292.24" y2="196.45"/><path class="cls-4" d="M613.44,1210.77H613a6.31,6.31,0,0,1-.41,1.62,5.71,5.71,0,0,1-1.73.15h-3.26l1.92-1.88c2.84-2.51,3.93-3.49,3.93-5.32a3.58,3.58,0,0,0-3.86-3.52,3.36,3.36,0,0,0-3.4,3.29,1,1,0,1,0,1.91.05.92.92,0,0,0-1-.94.66.66,0,0,0-.24,0,2.63,2.63,0,0,1,2.45-1.86c1.66,0,2.45,1.47,2.45,3a6.45,6.45,0,0,1-1.92,4l-3.49,3.9c-.2.2-.2.23-.2.67h6.75Zm0,0" transform="translate(-322.14 -1000.42)"/><path class="cls-3" d="M630.17,1172.19h6.29m-6.29-23.58h6.29m-6.29-23.56h6.29m-6.29-23.58h6.29m-12.57-23.57h12.57" transform="translate(-322.14 -1000.42)"/><path class="cls-4" d="M615.08,1082.24v-.55h-.59c-1.64,0-1.69-.21-1.69-.88V1070.6c0-.43,0-.47-.42-.47a4.5,4.5,0,0,1-3.3,1.16v.57a5.41,5.41,0,0,0,2.38-.48v9.43c0,.66-.06.88-1.7.88h-.58v.55c.64,0,2.22,0,3,0s2.31,0,3,0Zm0,0" transform="translate(-322.14 -1000.42)"/><g class="cls-8"><line class="cls-3" x1="314.32" y1="596.1" x2="314.32" y2="47.46"/></g><path d="M631.49,1049.61l.57-.28,1.35-.6.81-.32.83-.28.76-.2.65-.06.58.06.75.2.86.28.86.32,1.48.6.63.28-5.16-18.87Zm0,0" transform="translate(-322.14 -1000.42)"/><path class="cls-7" d="M631.49,1049.61l.57-.28,1.35-.6.81-.32.83-.28.76-.2.65-.06.58.06.75.2.86.28.86.32,1.48.6.63.28-5.16-18.87Zm0,0" transform="translate(-322.14 -1000.42)"/><path class="cls-4" d="M641.21,1001.55a2,2,0,0,0,.07-.37.55.55,0,0,0-.59-.54.87.87,0,0,0-.83.73l-1.62,6.42a1.42,1.42,0,0,1-.28.69,2.82,2.82,0,0,1-2.21,1.35c-1.22,0-1.33-1.2-1.33-1.79a14.75,14.75,0,0,1,1.18-4.5,3.75,3.75,0,0,0,.37-1.37,1.69,1.69,0,0,0-1.73-1.75c-2,0-2.81,3.17-2.81,3.34a.23.23,0,0,0,.24.2c.2,0,.22-.09.31-.4.53-1.83,1.35-2.7,2.2-2.7.2,0,.57,0,.57.71a6.05,6.05,0,0,1-.57,2c-1.07,2.86-1.07,3.58-1.07,4.1a2.36,2.36,0,0,0,2.58,2.56,2.92,2.92,0,0,0,2.18-1h0a8.11,8.11,0,0,1-1.31,3.21,3.21,3.21,0,0,1-2.5,1.57,1.65,1.65,0,0,1-1.65-1,1.19,1.19,0,0,0,.22,0,1.11,1.11,0,0,0,1.1-1.07.69.69,0,0,0-.75-.68,1.18,1.18,0,0,0-1.11,1.33,2,2,0,0,0,2.19,1.88c2.18,0,4.39-2,5-4.43Zm0,0" transform="translate(-322.14 -1000.42)"/><text class="cls-9" transform="translate(292.94 327.58)">O</text><path class="cls-10" d="M670.05,1280c1.47-.06,9.08-.11,15.34,10,5.78,9.29,6.49,20.87,6.61,23.63" transform="translate(-322.14 -1000.42)"/><text class="cls-9" transform="translate(369.86 289.64)">x</text><text class="cls-9" transform="translate(471.84 133.09)">B</text><text class="cls-11" transform="translate(558.84 332.43)">A</text><text class="cls-9" transform="translate(543.84 69.71)">C</text></svg>