<svg width="308" height="319" xmlns="http://www.w3.org/2000/svg" xmlns:xlink="http://www.w3.org/1999/xlink" overflow="hidden"><defs><clipPath id="clip0"><rect x="264" y="66" width="308" height="319"/></clipPath></defs><g clip-path="url(#clip0)" transform="translate(-264 -66)"><path d="M1.5-5.78971e-07 1.5001 264.5-1.4999 264.5-1.5 5.78971e-07ZM4.5001 263 0.000104987 272-4.4999 263Z" transform="matrix(1 0 0 -1 308.5 360.5)"/><path d="M279.5 324 529.77 324 529.77 327 279.5 327ZM528.27 321 537.27 325.5 528.27 330Z"/><text font-family="Times New Roman,Times New Roman_MSFontService,sans-serif" font-style="italic" font-weight="400" font-size="24" transform="translate(286.721 348)">O<tspan x="0" y="-252">y</tspan><tspan x="226.593" y="0">b</tspan></text><path d="M341 268C362.232 220.997 383.464 173.994 403.117 173.994 422.769 173.994 440.492 267.791 458.916 268 477.34 268.209 503.661 191.751 513.663 175.247 523.664 158.744 521.296 163.862 518.927 168.98" stroke="#000000" stroke-width="2.33333" stroke-miterlimit="8" fill="none" fill-rule="evenodd"/><path d="M338.5 266C338.5 264.619 339.619 263.5 341 263.5 342.381 263.5 343.5 264.619 343.5 266 343.5 267.381 342.381 268.5 341 268.5 339.619 268.5 338.5 267.381 338.5 266Z" stroke="#000000" stroke-width="1.33333" stroke-miterlimit="8" fill-rule="evenodd"/><path d="M0 2.5C-3.18283e-16 1.11929 1.11929 -3.18283e-16 2.5 -6.36567e-16 3.88071-1.27313e-15 5 1.11929 5 2.5 5 3.88071 3.88071 5 2.5 5 1.11929 5-1.59142e-15 3.88071 0 2.5Z" stroke="#000000" stroke-width="1.33333" stroke-miterlimit="8" fill-rule="evenodd" transform="matrix(1 0 0 -1 518.5 166.5)"/><path d="M342 266 342 324.695" stroke="#000000" stroke-width="2" stroke-miterlimit="8" stroke-dasharray="16 6" fill="none" fill-rule="evenodd"/><path d="M521 166 521 324.507" stroke="#000000" stroke-width="2" stroke-miterlimit="8" stroke-dasharray="16 6" fill="none" fill-rule="evenodd"/><text font-family="Times New Roman,Times New Roman_MSFontService,sans-serif" font-style="italic" font-weight="400" font-size="24" transform="translate(335.541 348)">a<tspan x="210.838" y="16">x</tspan><tspan x="-49.563" y="-73">m</tspan><tspan x="-56.0649" y="-169">M</tspan></text><path d="M308 174 403.267 174" stroke="#000000" stroke-width="2" stroke-miterlimit="8" stroke-dasharray="16 6" fill="none" fill-rule="evenodd"/><path d="M310 268 455.422 268.603" stroke="#000000" stroke-width="2" stroke-miterlimit="8" stroke-dasharray="16 6" fill="none" fill-rule="evenodd"/></g></svg>